# xmcd
#
# Track frame offsets: 
#        150
#        93004
#        122854
#        152387
#        177296
#        213566
#
# Disc length: 3309 seconds
#
# Revision: 4
# Processed by: cddbd v1.5.2PL0 Copyright (c) Steve Scherf et al.
# Submitted via: ExactAudioCopy v1.0b3
#
DISCID=440ceb06
DTITLE=Tchaikovsky| Чайковский;\\Shostakovich| Шостакович - Piano conc
DTITLE=ertos (Matcuev, Temirkanov - St. Peterburg SO)
DYEAR=2006
DGENRE=Classical - Concertos
TTITLE0=Tchaikovsky| Чайковский - Piano Concerto no. 1 in B-flat minor
TTITLE0=, op. 23 (1) Allegro non troppo e molto maestoso
TTITLE1=Tchaikovsky| Чайковский - Piano Concerto no. 1 in B-flat minor
TTITLE1=, op. 23 (2) Andantino simplice
TTITLE2=Tchaikovsky| Чайковский - Piano Concerto no. 1 in B-flat minor
TTITLE2=, op. 23 (3) Allegro con fuoco
TTITLE3=Shostakovich| Шостакович - Piano Concerto no. 1 in C minor, op
TTITLE3=35 (1) Allegro moderato
TTITLE4=Shostakovich| Шостакович - Piano Concerto no. 1 in C minor, op
TTITLE4=35 (2) Lento
TTITLE5=Shostakovich| Шостакович - Piano Concerto no. 1 in C minor, op
TTITLE5=35 (3) Moderato
EXTD=
EXTT0=
EXTT1=
EXTT2=
EXTT3=
EXTT4=
EXTT5=
PLAYORDER=
